<svg viewBox="0 0 226 40" fill="none" class="h-6" xmlns="http://www.w3.org/2000/svg">
                <g clip-path="url(#clip0_1158_45)">
                    <path
                        d="M81.564 37.334H74.9573V34.8062C73.5528 36.5729 70.8506 37.8563 67.5248 37.8563C65.9079 37.9034 64.299 37.6137 62.8027 37.0059C61.3063 36.3981 59.956 35.4859 58.8394 34.3284C56.6222 31.9913 55.5136 28.8894 55.5136 25.0227C55.5136 21.1559 56.6222 18.0522 58.8394 15.7114C59.9567 14.5532 61.3079 13.6406 62.8052 13.0327C64.3026 12.4249 65.9125 12.1356 67.5304 12.1836C70.6652 12.1836 73.0304 13.0391 74.5753 14.8058V0.25H81.5697L81.564 37.334ZM62.6484 25.0227C62.6484 29.3617 65.0585 31.845 68.6821 31.845C72.2045 31.845 74.5697 29.5061 74.5697 25.5449V24.4338C74.5697 20.5726 72.2045 18.1337 68.6821 18.1337C65.0585 18.1448 62.6484 20.6782 62.6484 25.0227Z"
                        fill="#1A1A1A" />
                    <path
                        d="M109.03 34.3284C106.569 36.6674 103.384 37.8563 99.5243 37.8563C95.6648 37.8563 92.4739 36.6674 89.9739 34.3284C87.4739 31.9895 86.2548 28.8395 86.2548 25.0227C86.2548 21.206 87.4908 18.0281 89.9683 15.7114C92.4458 13.3947 95.6592 12.1836 99.5187 12.1836C103.378 12.1836 106.564 13.3725 109.024 15.7114C111.485 18.0504 112.788 21.156 112.788 25.0227C112.788 28.8895 111.541 31.9173 109.03 34.3284ZM99.5243 18.1448C98.6902 18.1125 97.8593 18.2631 97.091 18.5858C96.3227 18.9086 95.6361 19.3954 95.0806 20.0115C93.957 21.2004 93.3952 22.8727 93.3952 25.0116C93.3952 27.1505 93.957 28.8283 95.0806 30.0117C96.2606 31.1723 97.8572 31.8238 99.5215 31.8238C101.186 31.8238 102.782 31.1723 103.962 30.0117C105.086 28.8172 105.648 27.145 105.648 25.0116C105.648 22.8782 105.086 21.1893 103.962 20.0115C103.408 19.3959 102.722 18.9092 101.955 18.5865C101.188 18.2638 100.358 18.1129 99.5243 18.1448V18.1448Z"
                        fill="#1A1A1A" />
                    <path
                        d="M124.474 21.4393L132.536 12.6614H141.08L131.665 23.2171L141.777 37.3452H133.21L126.698 28.4117L124.451 30.7951V37.3341H117.429V0.25H124.474V21.4393Z"
                        fill="#1A1A1A" />
                    <path
                        d="M166.418 27.2172H149.289C149.435 30.3172 151.367 32.2172 154.502 32.2172C157.013 32.2172 158.558 31.3117 159.086 29.495L166.182 29.8283C165.958 31.0053 165.494 32.1249 164.818 33.1184C164.142 34.1119 163.268 34.9584 162.249 35.6062C160.025 37.1185 157.374 37.8963 154.676 37.8285C150.811 37.8285 147.676 36.684 145.311 34.3451C142.946 32.0061 141.789 28.9061 141.789 24.9949C141.789 21.0837 142.946 17.9281 145.311 15.6392C147.676 13.3502 150.716 12.1558 154.48 12.1558C158.098 12.1558 160.995 13.2521 163.171 15.4447C165.339 17.5948 166.401 20.6004 166.401 24.4171L166.418 27.2172ZM149.289 22.5837H159.328C159.182 19.4837 157.541 17.6225 154.457 17.6225C151.373 17.6225 149.48 19.4837 149.289 22.5837Z"
                        fill="#1A1A1A" />
                    <path
                        d="M195.765 37.334H189.176V34.8062C187.777 36.5729 185.069 37.8562 181.743 37.8562C180.125 37.9039 178.515 37.6144 177.018 37.0066C175.521 36.3988 174.169 35.4863 173.052 34.3284C170.835 31.9913 169.726 28.8894 169.726 25.0227C169.726 21.1559 170.835 18.0522 173.052 15.7114C174.169 14.5535 175.521 13.641 177.018 13.0332C178.515 12.4254 180.125 12.1359 181.743 12.1836C184.878 12.1836 187.243 13.0391 188.788 14.8058V0.25H195.788L195.765 37.334ZM176.844 25.0227C176.844 29.3616 179.26 31.845 182.878 31.845C186.4 31.845 188.765 29.5061 188.765 25.5449V24.4338C188.765 20.5726 186.4 18.1337 182.878 18.1337C179.26 18.1448 176.844 20.6782 176.844 25.0227Z"
                        fill="#1A1A1A" />
                    <path
                        d="M223.9 37.3341H217.265V34.8507C216.012 36.8563 213.838 37.8563 210.799 37.8563C205.052 37.8563 201.58 34.234 201.58 28.1728V12.6614H208.625V26.6894C208.625 29.795 209.979 31.3673 212.63 31.3673C215.282 31.3673 216.878 29.4617 216.878 26.595V12.6614H223.922L223.9 37.3341Z"
                        fill="#1A1A1A" />
                    <path
                        d="M19.5864 1.3728C14.5243 1.3728 9.66966 3.38368 6.09027 6.96306C2.51088 10.5424 0.5 15.3971 0.5 20.4591L0.5 39.5455H19.5864C24.6484 39.5455 29.5031 37.5346 33.0825 33.9552C36.6619 30.3758 38.6727 25.5211 38.6727 20.4591C38.6727 15.3971 36.6619 10.5424 33.0825 6.96306C29.5031 3.38368 24.6484 1.3728 19.5864 1.3728V1.3728ZM25.0632 26.7506C24.2913 27.5245 23.3741 28.1381 22.3643 28.5563C21.3545 28.9745 20.272 29.1891 19.179 29.1876H10.8578V20.8665C10.8579 19.4981 11.1955 18.1508 11.8406 16.944C12.4857 15.7372 13.4184 14.7082 14.5562 13.948C15.694 13.1878 17.0018 12.7199 18.3636 12.5858C19.7254 12.4517 21.0992 12.6555 22.3635 13.1792C23.6277 13.7028 24.7433 14.5302 25.6114 15.588C26.4795 16.6458 27.0733 17.9013 27.3403 19.2434C27.6073 20.5855 27.5392 21.9727 27.142 23.2822C26.7448 24.5917 26.0308 25.783 25.0632 26.7506V26.7506Z"
                        fill="#1A1A1A" />
                </g>
                <defs>
                    <clipPath id="clip0_1158_45">
                        <rect width="225" height="39.4582" fill="white" transform="translate(0.5 0.25)" />
                    </clipPath>
                </defs>
            </svg>
